<svg xmlns="http://www.w3.org/2000/svg" viewBox="0 0 841.9 595.3">

  <!-- have_first_class icon -->
  <symbol id="icon-have_first_class" viewBox="0 0 25 25">
    <path d="M12.5 2L15.2032 10.0126H24L16.8984 14.9874L19.6016 23L12.5 18.0692L5.39841 23L8.10159 14.9874L1 10.0126H9.79681L12.5 2Z"/>
  </symbol>

  <!-- have_second_class icon -->
  <symbol id="icon-have_second_class" viewBox="0 0 25 25">
    <path fill-rule="evenodd" clip-rule="evenodd" d="M4.71558 3H20.2844C21.228 3 22 3.77727 22 4.72727V20.2727C22 21.2227 21.228 22 20.2844 22H4.71558C3.77201 22 3 21.2227 3 20.2727V4.72727C3 3.77727 3.77201 3 4.71558 3ZM17.6682 5.375C17.1964 5.375 16.8104 5.76364 16.8104 6.23864V7.58824H20.0914V6.23864C20.0914 5.76364 19.7054 5.375 19.2336 5.375H17.6682ZM20.0914 8.58824H16.8104V14.2273C16.8104 14.7023 17.1964 15.0909 17.6682 15.0909H19.2336C19.7054 15.0909 20.0914 14.7023 20.0914 14.2273V8.58824ZM8.08239 7.58824V6.325C8.08239 5.80682 7.6535 5.375 7.13883 5.375H5.74492C5.23025 5.375 4.80135 5.80682 4.80135 6.325V7.58824H8.08239ZM4.80135 8.58824H8.08239V14.1625C8.08239 14.6807 7.6535 15.1125 7.13883 15.1125H5.74492C5.23025 15.1125 4.80135 14.6807 4.80135 14.1625V8.58824ZM20.0271 21.6977C20.9278 21.6977 21.6783 20.9636 21.6783 20.0352V16.9477H3.32167V20.0352C3.32167 20.942 4.05079 21.6977 4.97291 21.6977H20.0271Z"/>
  </symbol>

  <!-- have_third_class icon -->
  <symbol id="icon-have_third_class" viewBox="0 0 25 25">
    <path fill-rule="evenodd" clip-rule="evenodd" d="M20.2844 3H4.71558C3.77201 3 3 3.77114 3 4.71364V20.2864C3 21.2289 3.77201 22 4.71558 22H20.2844C21.228 22 22 21.2289 22 20.2864V4.71364C22 3.77114 21.228 3 20.2844 3ZM5.50903 14.053C5.14447 14.053 4.84424 13.7531 4.84424 13.389V7H8.10384V13.389C8.10384 13.7531 7.80361 14.053 7.43905 14.053H5.50903ZM4.84424 5.31342V6H8.10384V5.31342C8.10384 4.94927 7.80361 4.64938 7.43905 4.64938H5.50903C5.14447 4.64938 4.84424 4.94927 4.84424 5.31342ZM16.6817 13.3675V7H19.9628V13.3675C19.9628 13.7531 19.6411 14.0744 19.2551 14.0744H17.3894C17.0034 14.0744 16.6817 13.7531 16.6817 13.3675ZM16.6817 6H19.9628V5.33484C19.9628 4.94927 19.6411 4.62796 19.2551 4.62796H17.3894C17.0034 4.62796 16.6817 4.94927 16.6817 5.33484V6ZM17.2178 20.0722C17.2178 20.5434 16.8318 20.929 16.36 20.929H11V17.6731H16.3386C16.8104 17.6731 17.1964 18.0586 17.1964 18.5299V20.0722H17.2178ZM10 17.6731H8.63996C8.16817 17.6731 7.78217 18.0586 7.78217 18.5299V20.0722C7.78217 20.5434 8.16817 20.929 8.63996 20.929H10V17.6731Z"/>
  </symbol>

  <!-- have_fourth_class icon -->
  <symbol id="icon-have_fourth_class" viewBox="0 0 25 25">
    <path d="M6 9.75326C6.14167 9.57335 6.25759 9.35002 6.4379 9.21975C7.03036 8.7979 7.79669 9.08947 7.97056 9.80288C8.12512 10.4481 8.25391 11.0994 8.38914 11.7508C8.62741 12.8737 8.85925 14.0027 9.10396 15.1256C9.42594 16.5834 10.4112 17.3527 11.9632 17.3589C13.0708 17.3651 14.172 17.3527 15.2797 17.3651C15.9301 17.3713 16.2971 17.6566 16.4002 18.2025C16.5032 18.7919 16.0846 19.3378 15.4664 19.344C14.0304 19.3564 12.5943 19.3936 11.1582 19.3316C9.39374 19.2572 7.75161 17.8551 7.29439 16.0809C6.99816 14.9208 6.77921 13.7422 6.52162 12.5759C6.35419 11.8004 6.17387 11.0312 6 10.2557C6 10.0882 6 9.92075 6 9.75326Z"/>
    <path d="M10.5399 1C11.0486 1.10546 11.5187 1.26675 11.9245 1.60175C12.7681 2.29655 13.0256 3.56829 12.4976 4.51123C11.9245 5.54103 10.7202 6.04972 9.61902 5.73334C8.52427 5.41696 7.86741 4.65392 7.7837 3.50625C7.7193 2.62534 8.20872 1.6948 9.2262 1.23574C9.45803 1.13028 9.71562 1.08065 9.96677 1C10.1535 1 10.3467 1 10.5399 1Z"/>
    <path d="M17.3469 16.875C17.1924 16.875 17.0829 16.875 16.9799 16.875C15.3313 16.875 13.6827 16.8812 12.0277 16.875C10.7655 16.8688 9.91546 16.1988 9.67075 15.0077C9.24572 12.9853 8.82714 10.963 8.40212 8.94058C7.97065 6.8872 9.88326 5.89462 11.2549 6.32267C12.1307 6.59563 12.5815 7.22839 12.7618 8.05347C13.1224 9.70983 13.4638 11.3662 13.7986 13.0225C13.8566 13.3203 13.9532 13.432 14.288 13.4258C15.6275 13.4134 16.967 13.4134 18.3064 13.4568C19.2144 13.4816 19.9164 14.1888 19.9808 15.0635C19.9937 15.2124 20.0001 15.3613 20.0001 15.5102C20.0001 17.8117 20.0001 20.1071 20.0001 22.4086C20.0001 22.6133 20.0001 22.8242 19.955 23.0227C19.8133 23.6493 19.2466 24.0401 18.5833 23.9967C17.9329 23.9533 17.4242 23.4756 17.3598 22.8428C17.3469 22.6939 17.3469 22.5451 17.3469 22.3962C17.3469 20.6778 17.3469 18.9532 17.3469 17.2348C17.3469 17.1293 17.3469 17.0177 17.3469 16.875Z"/>
  </symbol>

  <!-- have_wifi icon -->
  <symbol id="icon-have_wifi" viewBox="0 0 25 25">
    <path d="M24 8.79103C23.7318 9.04155 23.4635 9.29206 23.2029 9.55016C22.9424 9.80827 22.6971 10.0816 22.4212 10.3776C19.6238 7.69788 16.3359 6.28589 12.4885 6.28589C8.65645 6.28589 5.38387 7.69788 2.66311 10.3017C2.11896 9.77031 1.5978 9.2541 1 8.66198C1.82772 8.02431 2.63246 7.30313 3.52916 6.711C9.91336 2.52058 18.1446 3.24935 23.7088 8.47219C23.8007 8.5557 23.9004 8.63161 24 8.70753C24 8.73789 24 8.76067 24 8.79103Z"/>
    <path d="M12.1207 21.9996C12.021 21.954 11.9214 21.9009 11.8141 21.8553C11.0017 21.5137 10.5495 20.6711 10.7181 19.8133C10.8867 18.963 11.6455 18.3481 12.5269 18.3481C13.4006 18.3557 14.1593 18.9782 14.3203 19.8285C14.4812 20.6787 14.0137 21.5213 13.1936 21.8553C13.0863 21.9009 12.9867 21.9464 12.8794 21.992C12.6265 21.9996 12.3736 21.9996 12.1207 21.9996Z"/>
    <path d="M5.89735 13.5131C5.3532 12.9817 4.83204 12.4731 4.31088 11.9569C8.27323 7.70573 15.9603 7.14397 20.6814 11.9113C20.1526 12.4275 19.6161 12.9438 19.072 13.4752C17.2786 11.7747 15.079 10.8182 12.4885 10.8258C9.90568 10.8334 7.71375 11.7823 5.89735 13.5131Z"/>
    <path d="M17.4855 15.1524C16.9414 15.6838 16.4202 16.2 15.8991 16.7086C13.8528 14.7956 10.9021 15.0006 9.13166 16.701C8.6105 16.1848 8.08934 15.6762 7.56052 15.16C9.66048 12.7232 14.4812 12.1083 17.4855 15.1524Z"/>
  </symbol>

  <!-- is_express icon -->
  <symbol id="icon-is_express" viewBox="0 0 25 25">
    <path d="M9.28456 20.353C9.15396 20.3571 9.07233 20.3041 9.00091 20.2329C8.49074 19.734 7.97649 19.2392 7.47041 18.7383C6.89902 18.1722 6.3358 17.596 5.76033 17.034C5.63177 16.9077 5.59911 16.7754 5.65013 16.6268C5.76237 16.2908 5.8746 15.9507 6.01541 15.6249C6.92147 13.5175 8.18056 11.634 9.69474 9.91745C11.1008 8.3231 12.6966 6.94663 14.4923 5.80839C15.129 5.40522 15.7943 5.05092 16.4453 4.67218C16.5126 4.63349 16.5412 4.66811 16.582 4.7068C17.2187 5.34209 17.8574 5.97739 18.4941 6.61472C19.4267 7.54527 20.3593 8.47785 21.2939 9.40636C21.3531 9.46541 21.3572 9.5041 21.3204 9.5774C20.5246 11.1351 19.5593 12.5788 18.4206 13.9064C17.7003 14.7453 16.9187 15.5252 16.0963 16.2643C14.2107 17.9584 12.0966 19.2962 9.72943 20.2227C9.60699 20.2716 9.48047 20.3102 9.35394 20.351C9.32333 20.353 9.29068 20.351 9.28456 20.353ZM10.6314 14.1222C10.5641 14.8634 11.2518 15.3765 11.8558 15.3724C12.5353 15.3663 13.1027 14.8064 13.1006 14.1243C13.0986 13.5521 12.7006 12.8801 11.7579 12.8944C11.1477 12.9046 10.6314 13.4584 10.6314 14.1222ZM15.3943 11.8152C16.1126 11.8905 16.6473 11.1656 16.6412 10.5975C16.6371 10.0172 16.129 9.34731 15.3596 9.35342C14.7454 9.35749 14.1291 9.91745 14.1556 10.6077C14.1822 11.3163 14.674 11.8152 15.3943 11.8152Z"/>
    <path d="M21.7654 8.61827C20.2982 7.17256 18.8289 5.72686 17.3453 4.26486C17.629 4.15287 17.8943 4.04291 18.1636 3.9411C19.1493 3.56441 20.1615 3.29359 21.2002 3.13273C21.6185 3.06757 22.043 3.02481 22.4674 3.00241C22.8837 2.98001 23.0021 3.11033 23 3.52979C22.9959 4.24246 22.8715 4.93885 22.7184 5.63319C22.4919 6.6574 22.1736 7.65515 21.7573 8.61827C21.7511 8.63049 21.745 8.64271 21.7389 8.65289C21.7471 8.64067 21.7573 8.62845 21.7654 8.61827Z"/>
    <path d="M9.97031 8.98269C9.92949 9.03156 9.89276 9.08247 9.84787 9.12726C8.62551 10.3999 7.58885 11.8089 6.70728 13.3341C6.3971 13.8716 6.11957 14.4255 5.83183 14.9752C5.78694 15.0608 5.74408 15.0811 5.65021 15.0547C4.8666 14.8307 4.08298 14.6148 3.29936 14.3929C3.0504 14.3216 2.93816 14.0834 3.03408 13.839C3.06469 13.7617 3.10754 13.6863 3.15243 13.6151C4.18705 12.0024 5.54002 10.7277 7.24602 9.84604C8.06432 9.42251 8.92753 9.12319 9.83766 8.96029C9.87644 8.95419 9.91521 8.95418 9.95398 8.95215C9.9601 8.96233 9.96419 8.97251 9.97031 8.98269Z"/>
    <path d="M10.9008 20.188C12.019 19.6504 13.0945 19.0457 14.1168 18.3452C15.1372 17.6468 16.0881 16.8608 16.9983 16.0239C17.0105 16.0321 17.0248 16.0402 17.037 16.0484C17.0289 16.1156 17.0228 16.1828 17.0105 16.2499C16.7065 17.8484 15.9943 19.2513 14.9739 20.5056C14.2291 21.4219 13.3536 22.1936 12.3496 22.8187C12.27 22.8697 12.1864 22.9165 12.0986 22.9511C11.9211 23.0203 11.7497 22.9613 11.6721 22.7882C11.5946 22.6151 11.5293 22.4359 11.4762 22.2547C11.2824 21.5807 11.0946 20.9047 10.9048 20.2307C10.9028 20.2226 10.9028 20.2124 10.9008 20.188Z"/>
    <path d="M8.23362 20.701C8.09689 20.8049 7.96425 20.923 7.81528 21.0146C7.23165 21.3771 6.60925 21.6682 5.97052 21.9167C5.04814 22.2771 4.11759 22.613 3.18909 22.9592C3.14623 22.9755 3.0993 22.9836 3.034 22.9999C3.1095 22.782 3.1748 22.5845 3.24623 22.3891C3.67273 21.2162 4.10331 20.0434 4.65633 18.9214C4.83387 18.563 5.01753 18.2067 5.28894 17.9053C5.31342 17.8789 5.33995 17.8524 5.35832 17.832C6.31131 18.785 7.26226 19.7318 8.23362 20.701Z"/>
  </symbol>

  <!-- have_air_conditioning icon -->
  <symbol id="icon-have_air_conditioning" viewBox="0 0 25 25">
    <path d="M9.99361 13.6765C9.58763 13.9172 9.21201 14.1386 8.83639 14.3599C8.1838 14.7443 7.53879 15.1327 6.8824 15.5093C6.7534 15.5831 6.70787 15.6724 6.70028 15.8122C6.65096 16.5849 6.59405 17.3616 6.54093 18.1343C6.51058 18.5886 6.18807 18.8993 5.75933 18.8838C5.34198 18.8682 5.03465 18.5187 5.04983 18.0644C5.065 17.7111 5.09156 17.3538 5.11433 17.0004C5.12192 16.8606 5.1295 16.7209 5.13709 16.55C5.02327 16.616 4.936 16.6626 4.84874 16.7131C4.27582 17.0509 3.7029 17.3926 3.12619 17.7305C2.83025 17.9013 2.48878 17.8586 2.24595 17.6334C2.0221 17.4276 1.92345 17.0626 2.06763 16.783C2.1473 16.6277 2.28389 16.4762 2.43186 16.383C3.01996 16.0141 3.61943 15.6724 4.21511 15.319C4.26823 15.288 4.32135 15.253 4.39344 15.2103C3.94573 14.9851 3.52078 14.7754 3.09584 14.5618C2.72401 14.3716 2.56086 14.0065 2.6671 13.6299C2.7961 13.1833 3.27417 12.9581 3.7029 13.1639C4.40103 13.4979 5.09156 13.8473 5.7821 14.1968C5.91489 14.2667 6.01734 14.2628 6.14634 14.1852C7.11764 13.6027 8.09274 13.0319 9.06404 12.4572C9.11716 12.4261 9.17028 12.3912 9.24995 12.3407C9.03748 12.2164 8.84398 12.0999 8.65048 11.9873C7.81956 11.4942 6.98484 11.0088 6.15772 10.5078C6.01354 10.4185 5.90351 10.4263 5.75933 10.5001C5.08777 10.8457 4.41241 11.1796 3.73326 11.5097C3.33108 11.7077 2.89854 11.564 2.71263 11.1796C2.51913 10.7874 2.67469 10.3447 3.08066 10.1351C3.45249 9.9409 3.82811 9.75839 4.19994 9.56812C4.25685 9.54093 4.30997 9.50987 4.38585 9.46716C3.81293 9.12932 3.26278 8.80314 2.71263 8.47696C2.61019 8.41483 2.50395 8.35658 2.40151 8.29056C2.0221 8.05758 1.89689 7.61102 2.10177 7.23824C2.31045 6.86157 2.76195 6.74119 3.15275 6.96642C3.7674 7.32366 4.37826 7.68868 4.98912 8.04981C5.02706 8.07311 5.065 8.09252 5.13709 8.13524C5.11433 7.75858 5.09536 7.41686 5.07639 7.07126C5.065 6.90817 5.04983 6.74896 5.04603 6.58587C5.03845 6.15872 5.34198 5.81701 5.74416 5.79759C6.16531 5.77818 6.50299 6.08106 6.53334 6.51597C6.59025 7.30813 6.64717 8.10417 6.69649 8.89633C6.70408 9.02836 6.7534 9.10214 6.86723 9.16427C7.84991 9.73897 8.82501 10.3176 9.8039 10.8961C9.85702 10.9272 9.91013 10.9583 9.98981 11.001C9.99361 10.9156 10.0012 10.8534 10.0012 10.7952C10.0012 9.63801 9.9974 8.47696 10.005 7.31978C10.005 7.17999 9.95946 7.09844 9.84563 7.02078C9.20442 6.58198 8.56321 6.14319 7.92959 5.69663C7.44773 5.3588 7.48567 4.64818 7.99409 4.38025C8.26347 4.24045 8.53286 4.26375 8.78327 4.43461C9.12475 4.6676 9.46622 4.90059 9.80769 5.13357C9.85702 5.16852 9.91013 5.20347 10.0012 5.26172C10.0012 5.16076 10.0012 5.09086 10.0012 5.02485C10.0012 4.32588 9.9974 3.62692 10.0012 2.92795C10.005 2.39985 10.3958 2.05037 10.8738 2.13191C11.2077 2.18627 11.4619 2.47363 11.4885 2.82311C11.4923 2.87359 11.4885 2.92795 11.4885 2.97843C11.4885 9.21863 11.4885 15.455 11.4885 21.6952C11.4885 22.1145 11.3102 22.4096 10.9839 22.5184C10.4868 22.6892 10.0012 22.3281 9.9974 21.7767C9.99361 21.07 9.9974 20.3671 9.9974 19.6604C9.9974 19.5905 9.9974 19.5245 9.9974 19.408C9.73181 19.5905 9.50037 19.7458 9.27272 19.9011C9.10957 20.0138 8.95021 20.1264 8.78327 20.2351C8.40006 20.4914 7.94856 20.4137 7.71332 20.0526C7.4705 19.6837 7.57294 19.2216 7.95994 18.9537C8.59356 18.5149 9.22719 18.08 9.85702 17.6373C9.92152 17.5907 9.98981 17.4897 9.98981 17.4159C9.9974 16.2122 9.9974 15.0084 9.99361 13.8046C10.005 13.7774 10.0012 13.7464 9.99361 13.6765Z"/>
    <path d="M21.6682 7.3199C21.4443 7.59172 21.1977 7.84412 21.0004 8.13147C20.7121 8.55862 20.4123 8.99353 20.196 9.46339C19.828 10.2594 20.0329 11.005 20.7083 11.5525C21.3229 12.0534 22.0438 12.3253 22.7875 12.5466C22.8747 12.5738 22.9658 12.5971 22.9999 12.6087C22.3967 12.8805 21.7668 13.1562 21.1446 13.4514C20.9587 13.5407 20.7879 13.6766 20.6286 13.8125C20.0443 14.3057 19.8622 14.9503 20.1012 15.6919C20.2985 16.3132 20.6703 16.8258 21.0763 17.3151C21.2508 17.5248 21.4405 17.7228 21.6568 17.9597C21.3874 17.9053 21.1598 17.851 20.9283 17.8121C20.3288 17.7112 19.7294 17.6296 19.1185 17.7034C18.2496 17.8121 17.6919 18.3597 17.5705 19.245C17.4567 20.0838 17.6008 20.8953 17.8057 21.6991C17.8171 21.7419 17.8247 21.7846 17.8475 21.87C17.6388 21.6797 17.4643 21.5128 17.2821 21.3574C16.8193 20.9614 16.3412 20.5925 15.7872 20.3439C14.9184 19.9556 14.1633 20.1692 13.6056 20.9575C13.2034 21.5244 12.9568 22.1651 12.7595 22.8291C12.7405 22.8874 12.7254 22.9495 12.6874 23C12.6874 21.7147 12.6874 20.4332 12.6874 19.1324C14.7173 19.0625 16.3867 18.2432 17.654 16.62C18.6063 15.3968 19.0616 13.9872 19.0199 12.4223C18.9288 8.84985 16.0073 6.05399 12.695 6.07341C12.695 4.72984 12.695 3.38628 12.695 2C12.7254 2.08155 12.7443 2.12814 12.7557 2.17474C12.991 2.93584 13.2679 3.67751 13.7346 4.326C14.2772 5.07544 15.0019 5.28125 15.8442 4.92012C16.5271 4.62888 17.0924 4.16679 17.616 3.64257C17.6881 3.56879 17.7602 3.49889 17.8323 3.42511C17.8399 3.41734 17.8551 3.41734 17.8702 3.41346C17.8019 3.80178 17.7071 4.18621 17.6767 4.57452C17.6388 5.07544 17.6084 5.58413 17.6578 6.08118C17.7412 6.92382 18.3066 7.45969 19.1337 7.57618C19.9191 7.68491 20.6817 7.55677 21.4405 7.35873C21.5088 7.33931 21.5733 7.32378 21.6416 7.30825C21.6454 7.30825 21.653 7.31213 21.6682 7.3199Z"/>
    <path d="M12.6914 17.7849C12.6914 14.3366 12.6914 10.8845 12.6914 7.40137C14.4936 7.4868 15.9506 8.22848 16.9105 9.78561C18.0715 11.6689 18.0449 13.6066 16.8801 15.4861C15.7571 17.2878 13.7955 17.8625 12.6914 17.7849Z"/>
  </symbol>

  <!-- have_bed_linen icon -->
  <symbol id="icon-have_bed_linen" viewBox="0 0 25 25">
    <path d="M22.1173 17.108C22.2548 17.5745 22.4299 18.2331 22.63 18.878C22.9426 19.9345 22.3048 20.991 21.292 20.991C16.0027 21.0047 10.7009 21.0047 5.41161 20.9773C3.6235 20.9635 2.36057 19.9894 2.07298 18.3017C1.93543 17.5196 2.01046 16.6552 2.148 15.8731C2.59816 13.2113 3.12333 10.5632 3.63601 7.90136C3.72354 7.43486 3.86108 6.96835 4.04865 6.54301C4.43628 5.66488 5.01148 5.07488 5.9743 4.91023C6.78708 4.77302 7.57485 4.43001 8.36261 4.14187C8.86278 3.94978 9.32544 3.92234 9.7881 4.25163C10.6384 4.86907 11.5637 5.02 12.5765 4.99256C14.8273 4.93767 17.0781 4.97884 19.3288 4.99256C20.1291 4.99256 20.1291 5.00628 20.3542 5.82952C20.6418 6.92719 20.9169 8.02485 21.217 9.12251C21.292 9.36949 21.4546 9.58902 21.5921 9.80855C21.9047 10.2888 22.3174 10.7004 22.5174 11.2218C23.0551 12.5939 23.0676 14.0757 22.9176 15.5438C22.8675 16.0241 22.4674 16.4494 22.1173 17.108ZM3.06081 14.8852C4.16119 13.9385 5.32408 13.8699 6.52449 13.8836C11.2761 13.8973 16.0277 13.8836 20.7668 13.8973C21.2295 13.8973 21.7046 13.9659 22.3048 14.0071C22.1923 13.2525 22.1298 12.5527 21.9672 11.8804C21.6171 10.426 20.7543 9.86343 19.4164 10.2339C18.4911 10.4946 17.5532 10.769 16.7029 11.2081C14.1646 12.5115 11.5262 12.3057 8.87529 11.9353C8.58769 11.8941 8.47515 11.7295 8.51266 11.4276C8.55018 11.0846 8.58769 10.7553 8.6127 10.4123C8.68772 9.20484 8.77525 7.99741 8.83778 6.78998C8.86278 6.18626 8.83778 5.56883 8.83778 4.86907C8.57519 4.96512 8.36261 5.03372 8.15004 5.10232C7.4248 5.32186 6.71205 5.58255 5.98681 5.7472C5.39911 5.87069 4.98647 6.19999 4.76139 6.77626C4.58633 7.21532 4.44878 7.66811 4.34875 8.13462C4.16119 8.97158 4.02364 9.82227 3.86108 10.673C3.611 12.0313 3.34841 13.376 3.06081 14.8852ZM13.1642 20.1952C15.7276 20.1952 18.291 20.1952 20.8544 20.1952C21.0169 20.1952 21.192 20.2089 21.3545 20.1815C21.7172 20.1266 22.0173 19.7287 21.9672 19.3582C21.9172 18.974 21.7046 18.7545 21.3295 18.7682C21.167 18.7682 20.9919 18.7682 20.8293 18.7682C16.0152 18.7819 11.2011 18.7957 6.38694 18.7957C6.09934 18.7957 5.79924 18.8231 5.51165 18.7819C4.91144 18.7133 4.47379 18.1371 4.4863 17.451C4.4988 16.7924 4.87393 16.3534 5.49914 16.3122C6.13686 16.271 6.78708 16.2299 7.4373 16.2162C12.0389 16.1613 16.6404 16.1201 21.242 16.0652C21.342 16.0652 21.4546 16.0652 21.5546 16.0515C21.9172 16.0103 22.2173 15.6948 22.2298 15.3655C22.2298 14.9264 21.9422 14.7892 21.6296 14.6931C21.4921 14.652 21.342 14.652 21.192 14.652C15.9652 14.652 10.7259 14.6383 5.49914 14.6794C4.96146 14.6794 4.38626 14.899 3.9111 15.1871C2.4231 16.1064 2.29805 18.5075 3.63601 19.5777C4.18619 20.0168 4.84892 20.154 5.52415 20.154C8.07502 20.1952 10.6259 20.1952 13.1642 20.1952ZM9.62554 5.11604C9.513 7.2016 9.40047 9.17739 9.28793 11.112C12.6641 11.9353 15.7151 11.0846 18.6286 9.49297C15.5401 8.46391 12.7016 6.66649 9.62554 5.11604ZM21.2795 16.8885C21.0169 16.8885 20.7918 16.8885 20.5543 16.8885C18.6786 16.9159 16.803 16.9708 14.9273 16.9845C12.0389 17.012 9.15038 17.012 6.2494 17.0394C5.99931 17.0394 5.73672 17.0394 5.51165 17.1354C5.3866 17.1903 5.22405 17.4236 5.23655 17.5608C5.24906 17.7117 5.41161 17.9038 5.54916 17.9861C5.6617 18.0547 5.83676 18.0136 5.9743 18.0136C11.0135 17.9999 16.0652 17.9999 21.1044 17.9861C21.2545 17.9861 21.4045 17.945 21.5796 17.9313C21.5171 17.698 21.4796 17.5196 21.4296 17.3413C21.392 17.2041 21.342 17.0806 21.2795 16.8885ZM12.8266 5.78836C12.8141 5.82952 12.8141 5.88441 12.8016 5.92557C15.2525 7.22904 17.6908 8.55996 20.4792 9.20484C20.2041 8.1209 19.9666 7.10556 19.6665 6.11766C19.6164 5.95301 19.3163 5.80208 19.1288 5.80208C17.0281 5.78836 14.9273 5.78836 12.8266 5.78836Z"/>
  </symbol>

  <!-- have_train_food icon -->
  <symbol id="icon-have_train_food" viewBox="0 0 25 25">
    <path d="M4.87776 4C5.13926 4 5.32945 4 5.51964 4C10.2743 4 15.029 4 19.7837 4C21.2696 4 21.9947 4.72164 21.9947 6.22409C21.9947 7.02854 22.0066 7.84483 21.9947 8.64928C21.9828 9.83231 21.1983 10.6131 20.0215 10.6249C19.4271 10.6368 18.8447 10.6249 18.2028 10.6249C18.2028 11.5477 18.2028 12.3995 18.2028 13.2631C18.1909 15.6291 16.5862 17.238 14.2207 17.2499C12.4377 17.2499 10.6547 17.2617 8.8717 17.2499C6.53001 17.238 4.90153 15.641 4.90153 13.3222C4.86587 10.2345 4.87776 7.1705 4.87776 4ZM18.2385 5.90467C18.2385 6.82743 18.2385 7.76202 18.2385 8.69661C18.8566 8.69661 19.4509 8.69661 20.0452 8.69661C20.0452 7.75019 20.0452 6.82743 20.0452 5.90467C19.4271 5.90467 18.8566 5.90467 18.2385 5.90467Z"/>
    <path d="M20.0574 19.1782C20.0574 19.7934 20.0574 20.3849 20.0574 21.0001C14.3637 21.0001 8.69369 21.0001 2.99994 21.0001C2.99994 20.3849 2.99994 19.8052 2.99994 19.1782C8.66992 19.1782 14.3399 19.1782 20.0574 19.1782Z"/>
  </symbol>

  <!-- train icon -->
  <symbol id="icon-train" viewBox="0 0 25 25">
    <path d="M18.725 22.4537C19.1713 23.4065 20.4774 23.7351 20.527 25C15.2036 25 9.94634 25 4.62295 25C4.70562 23.7515 5.9786 23.4065 6.45803 22.4702C6.0282 22.3716 5.63142 22.3059 5.25118 22.1909C3.3665 21.6159 2.02739 19.8746 2.02739 17.8869C1.99433 13.6486 1.99433 9.4431 2.01086 5.22121C2.01086 3.26633 2.92013 1.78785 4.75521 1.14718C6.24312 0.637922 7.83021 0.325798 9.40078 0.17795C12.4758 -0.101318 15.5673 -0.101318 18.6092 0.539357C19.3863 0.703632 20.1467 0.982901 20.8411 1.32788C22.329 2.06712 23.106 3.33204 23.1225 4.95837C23.1556 9.31168 23.1721 13.665 23.1225 18.0183C23.106 20.0224 21.6181 21.7309 19.6673 22.2237C19.3697 22.3223 19.0556 22.3716 18.725 22.4537ZM11.2193 5.36906C9.004 5.36906 6.83828 5.36906 4.70562 5.36906C4.70562 7.57035 4.70562 9.70594 4.70562 11.8415C6.90441 11.8415 9.03707 11.8415 11.2193 11.8415C11.2193 9.67308 11.2193 7.55393 11.2193 5.36906ZM20.4774 5.36906C18.2621 5.36906 16.0963 5.36906 13.9637 5.36906C13.9637 7.57035 13.9637 9.70594 13.9637 11.8415C16.1625 11.8415 18.2951 11.8415 20.4774 11.8415C20.4774 9.67308 20.4774 7.55393 20.4774 5.36906ZM8.60723 17.8212C8.62376 16.7369 7.71449 15.8334 6.62336 15.8334C5.56529 15.8334 4.67255 16.6877 4.63949 17.739C4.60642 18.8232 5.48263 19.7432 6.57376 19.776C7.68142 19.7925 8.5907 18.9054 8.60723 17.8212ZM20.5104 17.7883C20.5104 16.7041 19.5846 15.817 18.4935 15.8334C17.4354 15.8498 16.5592 16.7205 16.5427 17.7719C16.5262 18.8561 17.4189 19.7596 18.51 19.776C19.6177 19.776 20.5104 18.8725 20.5104 17.7883Z"/>
  </symbol>

  <!-- clock icon -->
  <symbol id="icon-clock" viewBox="0 0 25 25">
    <path d="M12.6212 24.9959C5.92864 25.1719 0.179656 19.6058 0.00411469 12.8076C-0.171427 5.94339 5.2923 0.157224 12.0726 0.00321924C19.0943 -0.150785 24.8432 5.23937 24.9968 12.1696C25.1504 19.1658 19.6867 24.8419 12.6212 24.9959ZM22.8684 12.5216C22.8903 6.82342 18.2824 2.15928 12.5553 2.11528C6.91606 2.04928 2.17644 6.73541 2.1545 12.4116C2.11061 18.1537 6.80635 22.8839 12.4895 22.8839C18.1727 22.8839 22.8465 18.1977 22.8684 12.5216Z"/>
    <path d="M12.5069 12.0147C14.2133 11.2786 15.7202 10.6074 17.2271 9.95792C17.4709 9.84967 17.7147 9.65481 17.9584 9.67646C18.313 9.69811 18.6454 9.89297 19 10.0012C18.8449 10.326 18.8006 10.8023 18.5346 10.9322C17.6704 11.4301 16.7396 11.8198 15.8532 12.2312C14.7452 12.7508 13.6371 13.2921 12.5291 13.79C11.5319 14.2447 11.0443 13.9632 11.0222 12.924C11 10.6074 10.9778 8.29085 11.0443 5.97426C11.0443 5.64951 11.5097 5.32475 11.7535 5C12.0194 5.32475 12.4848 5.62786 12.4848 5.95261C12.5512 7.90114 12.5069 9.84967 12.5069 12.0147Z"/>
  </symbol>

  <!-- arrow left icon -->
  <symbol id="icon-arrow-left" viewBox="0 0 25 25">
    <path fill-rule="evenodd" clip-rule="evenodd" d="M20 0C22.7614 0 25 2.23858 25 5V15.3125C25 18.0739 22.7614 20.3125 20 20.3125H5C2.23858 20.3125 0 18.0739 0 15.3125V5C0 2.23858 2.23858 0 5 0H20ZM11.0654 11.1123V13.5417L11.0042 13.4827C9.84643 12.366 8.67874 11.2398 7.56627 10.1788L7.66657 10.0811C8.7786 8.99826 9.92232 7.88455 11.0768 6.77085V9.33522H17.4347V11.1123H11.0654Z"/>
  </symbol>

  <!-- arrow right icon -->
  <symbol id="icon-arrow-right" viewBox="0 0 25 25">
    <path fill-rule="evenodd" clip-rule="evenodd" d="M5 0C2.23858 0 0 2.23858 0 5V15.3125C0 18.0739 2.23858 20.3125 5 20.3125H20C22.7614 20.3125 25 18.0739 25 15.3125V5C25 2.23858 22.7614 0 20 0H5ZM13.9346 11.1123V13.5417L13.9958 13.4827C15.1536 12.366 16.3213 11.2398 17.4337 10.1788L17.3334 10.0811C16.2214 8.99826 15.0777 7.88455 13.9232 6.77085V9.33522H7.56531V11.1123H13.9346Z"/>
  </symbol>

  <!-- person icon -->
  <symbol id="icon-person" viewBox="0 0 25 25">
    <path d="M24.9732 25.0001C16.6108 25.0001 8.38491 25.0001 0.159009 25.0001C-0.211352 21.0878 -0.250337 19.5815 3.68718 17.7036C9.53498 14.9259 15.4607 14.9846 21.3475 17.7036C22.1077 18.0557 22.8095 18.5448 23.4722 19.0729C24.5248 19.9141 25.0706 21.0095 24.9927 22.3984C24.9537 23.22 24.9732 24.0611 24.9732 25.0001Z"/>
    <path d="M18.7351 6.2014C18.7546 9.66379 15.9671 12.5002 12.5169 12.5198C9.06671 12.5198 6.25977 9.70291 6.25977 6.26008C6.25977 2.83682 9.02772 0.0395284 12.4194 0.000405442C15.8891 -0.0387176 18.7156 2.75858 18.7351 6.2014Z"/>
  </symbol>

  <!-- person-in-circle icon -->
  <symbol id="icon-person-in-circle" viewBox="0 0 25 25">
    <path d="M12.5 0C5.60631 0 0 5.60631 0 12.5C0 19.3937 5.60631 25 12.5 25C19.3937 25 25 19.3937 25 12.5C25 5.60631 19.3937 0 12.5 0ZM12.4585 6.02159C14.2857 6.02159 15.7807 7.47508 15.7807 9.30233C15.7807 11.1296 14.3272 12.6246 12.5 12.6246C10.6728 12.6246 9.17774 11.1296 9.17774 9.30233C9.21927 7.51661 10.6728 6.02159 12.4585 6.02159ZM19.103 19.186C14.6595 19.186 10.3405 19.186 5.98007 19.186C5.77243 17.1096 5.77243 16.3206 7.84884 15.3239C10.9219 13.8704 14.0781 13.8704 17.1927 15.3239C17.608 15.49 17.9817 15.7807 18.314 16.0299C18.8538 16.4867 19.1445 17.0681 19.103 17.7741C19.103 18.2724 19.103 18.6877 19.103 19.186Z"/>
  </symbol>

  <!-- PC icon -->
  <symbol id="icon-pc" viewBox="0 0 25 25">
    <circle cx="12.5" cy="12.5" r="12.5" fill="white"/>
    <path fill-rule="evenodd" clip-rule="evenodd" d="M22.7971 12.4998C22.7971 18.174 18.1926 22.7738 12.5128 22.7738C6.83294 22.7738 2.22852 18.174 2.22852 12.4998C2.22852 6.82564 6.83294 2.22583 12.5128 2.22583C18.1926 2.22583 22.7971 6.82564 22.7971 12.4998ZM9.70045 17.4997V16.5751H11.9973V15.6504H5.99811C6.01525 12.8936 6.01525 10.1367 6.01525 7.36276H18.9392V15.6504H12.94V16.5751H15.2368V17.4997H9.70045ZM6.94084 14.7258H18.0136V8.2703H6.94084V14.7258ZM16.5225 13.1162C16.5054 13.1162 16.214 13.1504 16.0254 13.3045C15.8883 13.4244 15.8712 13.5956 15.854 13.784L9.03213 13.7497C9.10069 13.5785 9.03213 13.3902 8.91215 13.2703C8.75788 13.1333 8.62076 13.0991 8.39793 13.1162L8.41507 9.67441C8.40936 9.67441 8.4246 9.6725 8.44999 9.66933C8.50078 9.66299 8.59219 9.65157 8.6379 9.64016C8.87787 9.58879 8.99785 9.41756 9.11783 9.14358C9.13935 9.10059 9.14736 9.0576 9.15459 9.01884C9.15887 8.99585 9.16287 8.97435 9.16925 8.95523L15.8712 8.98947C15.9226 9.40043 16.1626 9.60591 16.5397 9.65728L16.5225 13.1162ZM10.0777 11.0956V11.4552L11.3461 11.421V11.0614L10.0777 11.0956ZM10.0777 10.3765V10.736L12.803 10.6847V10.3251L10.0777 10.3765ZM14.2428 9.53742C14.2428 9.64016 14.26 9.69153 14.3285 9.72578C14.4314 9.77715 14.5514 9.69153 14.5514 9.57167V9.12646H14.2428V9.53742ZM14.2428 10.5306C14.2428 10.6162 14.2428 10.6676 14.2943 10.7018C14.3971 10.7703 14.5342 10.6847 14.5514 10.5648V10.2908C14.5514 10.1881 14.4828 10.1367 14.38 10.1367C14.2317 10.1515 14.2373 10.3328 14.2415 10.4701C14.2422 10.4916 14.2428 10.512 14.2428 10.5306ZM14.2257 11.4895C14.2257 11.5751 14.2257 11.6607 14.3114 11.695C14.4142 11.7463 14.5514 11.6778 14.5342 11.5408V11.2669C14.5342 11.1813 14.4657 11.1128 14.38 11.1128C14.2943 11.1128 14.2257 11.1813 14.2257 11.2669V11.4895ZM14.3628 12.6367H14.4142C14.4828 12.6367 14.5514 12.5682 14.5514 12.4997V12.2258C14.5514 12.1573 14.4828 12.0888 14.4142 12.0888H14.3628C14.2943 12.0888 14.2428 12.1402 14.2428 12.2087V12.5169C14.2428 12.5854 14.2943 12.6367 14.3628 12.6367ZM14.2428 13.1162C14.1914 13.2703 14.2257 13.6299 14.2257 13.6299H14.5514V13.1504C14.5514 13.0306 14.3971 12.945 14.2943 13.0306C14.26 13.0477 14.2428 13.0819 14.2428 13.1162Z" fill-opacity="0.79"/>
  </symbol>

  <!-- tickets icon -->
  <symbol id="icon-tickets" viewBox="0 0 25 25">
    <circle cx="12.5" cy="12.5" r="12.5" fill="white"/>
    <path fill-rule="evenodd" clip-rule="evenodd" d="M22.9263 12.258C22.9263 18.0481 18.2278 22.7419 12.4319 22.7419C6.636 22.7419 1.9375 18.0481 1.9375 12.258C1.9375 6.46796 6.636 1.77417 12.4319 1.77417C18.2278 1.77417 22.9263 6.46796 22.9263 12.258ZM15.5898 17.4907C15.8131 17.3001 16.2127 17.246 16.2127 17.246L16.2242 12.8553C15.7371 12.7774 15.425 12.5216 15.3701 11.9947L6.87965 11.9392C6.86141 11.9708 6.8568 12.0095 6.8519 12.0506C6.84733 12.089 6.84251 12.1295 6.82612 12.1684C6.67206 12.5118 6.51929 12.7275 6.20982 12.8055C6.13663 12.8249 6.00126 12.8425 5.94841 12.8494C5.93148 12.8516 5.92301 12.8527 5.92777 12.8524L5.915 17.2235C6.19836 17.1962 6.37857 17.244 6.56793 17.4287C6.72463 17.5664 6.80039 17.8171 6.70769 18.0487L15.3561 18.114L15.3636 18.0557C15.3921 17.8311 15.4179 17.6279 15.5898 17.4907ZM8.03682 15.1284L8.02634 14.6773L9.62727 14.6472L9.63775 15.0983L8.03682 15.1284ZM8.03414 14.2054L8.02367 13.7542L11.4815 13.698L11.492 14.1491L8.03414 14.2054ZM13.418 12.9499C13.337 12.9157 13.3122 12.8386 13.3135 12.7109C13.3122 12.544 13.3108 12.3771 13.3082 12.1907L13.7013 12.1861L13.6987 12.7362C13.7 12.9031 13.5498 13.0105 13.418 12.9499ZM13.3815 14.17C13.3292 14.1241 13.3057 14.0666 13.3083 13.9584C13.3081 13.9343 13.3069 13.907 13.3056 13.8778C13.2979 13.7052 13.2872 13.4687 13.4715 13.4573C13.6086 13.4489 13.6922 13.5223 13.6909 13.65L13.6844 13.9942C13.6962 14.1702 13.516 14.2697 13.3815 14.17ZM13.4077 15.4451C13.2967 15.4029 13.2993 15.2947 13.3019 15.1865C13.3032 15.1556 13.3033 15.1236 13.3034 15.0908V15.0908V15.0908V15.0908C13.3036 15.0295 13.3038 14.9655 13.3123 14.901C13.3149 14.7928 13.3972 14.6994 13.5056 14.7025C13.6139 14.7056 13.708 14.7882 13.7054 14.8964L13.7093 15.2497C13.7002 15.4074 13.55 15.5149 13.4077 15.4451ZM13.5357 16.6255L13.477 16.6292C13.3882 16.6248 13.3346 16.5594 13.3294 16.4811L13.3333 16.0979C13.3372 16.0093 13.4025 15.9561 13.4808 15.9513L13.5396 15.9477C13.6284 15.952 13.712 16.0254 13.7081 16.114L13.712 16.4674C13.7081 16.556 13.6337 16.6195 13.5357 16.6255ZM13.3047 17.8773C13.3047 17.8773 13.2746 17.4273 13.3203 17.2281L13.3203 17.2281C13.3373 17.1878 13.3543 17.1474 13.3817 17.1163C13.5018 17.0008 13.7055 17.1061 13.7068 17.273L13.7082 17.8818L13.3047 17.8773ZM16.0658 11.0581L16.118 11.5459C16.1428 11.7703 16.2095 11.884 16.4967 11.9154L16.9734 11.9842L16.9708 12.9762L18.5548 12.9865C18.558 12.9647 18.5611 12.9429 18.5642 12.9211V12.9211C18.593 12.7158 18.621 12.5175 18.7898 12.3828C19.0131 12.1922 19.4126 12.1381 19.4126 12.1381L19.445 7.76575C18.9579 7.68777 18.6458 7.43205 18.5909 6.9051L10.09 6.84045C10.0718 6.87206 10.0672 6.91072 10.0623 6.95184V6.95185C10.0577 6.99021 10.0529 7.03071 10.0365 7.06964C9.88246 7.41306 9.72969 7.62873 9.42022 7.70675C9.32801 7.73118 9.14663 7.76112 9.13816 7.75479L9.13816 7.75362C9.13774 7.7541 9.13775 7.75448 9.13816 7.75479L9.12924 11.0049L16.0658 11.0581ZM11.2472 10.0296L11.2367 9.57849L12.8377 9.54844L12.8481 9.99956L11.2472 10.0296ZM16.7004 10.8421L16.7591 10.8385C16.8479 10.8429 16.9315 10.9163 16.9276 11.0049L16.9315 11.3582C16.9276 11.4468 16.8545 11.5299 16.7657 11.5256L16.7069 11.5292C16.6182 11.5249 16.5646 11.4594 16.5594 11.3812L16.5633 10.9979C16.5476 10.9105 16.6116 10.8378 16.7004 10.8421ZM16.7251 9.59335C16.8335 9.59648 16.9275 9.67907 16.9249 9.78726L16.9288 10.1406C16.9289 10.2879 16.7682 10.3862 16.6364 10.3256C16.5429 10.2773 16.5374 10.1823 16.5321 10.0915L16.5306 10.0669C16.5319 10.0361 16.532 10.0041 16.5321 9.97132V9.97127V9.97125C16.5323 9.90997 16.5325 9.84599 16.541 9.78149C16.5253 9.69406 16.6076 9.6006 16.7251 9.59335ZM16.6924 8.36774C16.8295 8.35928 16.9131 8.43269 16.9118 8.56044L16.9053 8.90458C16.9066 9.07146 16.7172 9.18135 16.5919 9.07123C16.5396 9.02535 16.5161 8.96788 16.5187 8.85969C16.5186 8.83924 16.5178 8.81662 16.517 8.79264V8.7926C16.5113 8.62085 16.5033 8.37941 16.6924 8.36774ZM16.9221 7.09647L16.9195 7.64661C16.9195 7.79392 16.7694 7.9014 16.6375 7.84079C16.5565 7.80651 16.5317 7.72947 16.533 7.60172C16.5317 7.43484 16.5304 7.26796 16.5277 7.08153L16.9221 7.09647ZM14.6919 8.59923L14.7023 9.05035L11.2445 9.1066L11.2341 8.65548L14.6919 8.59923Z" fill-opacity="0.79"/>
  </symbol>

  <!-- driver icon -->
  <symbol id="icon-driver" viewBox="0 0 25 25">
    <circle cx="12.5" cy="12.5" r="12.5" fill="white"/>
    <path fill-rule="evenodd" clip-rule="evenodd" d="M22.7971 12.4998C22.7971 18.174 18.1926 22.7738 12.5128 22.7738C6.83294 22.7738 2.22852 18.174 2.22852 12.4998C2.22852 6.82564 6.83294 2.22583 12.5128 2.22583C18.1926 2.22583 22.7971 6.82564 22.7971 12.4998ZM12.9639 17.0875C13.1868 16.5748 13.3876 15.652 13.4436 15.073C13.4742 14.6901 13.4197 13.8084 13.3863 13.2688L13.3863 13.2687C13.3777 13.1292 13.3704 13.0125 13.3665 12.9333H13.4436L14.0412 13.2803L14.8508 14.2248L13.8099 14.5911L14.6773 15.3814L12.4412 18.3308L10.205 15.3814L11.0532 14.5718L10.0122 14.2248L10.8026 13.2995L11.4002 12.9526H11.4773C11.4387 13.3188 11.3616 14.6104 11.4002 15.0923C11.458 15.6706 11.6701 16.6537 11.9014 17.1549L11.9143 17.1804L12.055 14.6489C12.055 14.5718 12.1321 14.5139 12.2092 14.5139H12.2445C12.0727 14.5121 11.9395 14.378 11.9395 14.2248V14.0706L12.1516 13.7622C12.1901 13.7429 12.2094 13.7429 12.248 13.7429H12.6142C12.6368 13.7429 12.6594 13.7495 12.6781 13.755C12.6913 13.7589 12.7026 13.7622 12.7106 13.7622L12.9227 14.0513V14.2248C12.9227 14.378 12.7895 14.5121 12.6177 14.5139H12.6911C12.7682 14.5139 12.8454 14.5718 12.8454 14.6489L12.9639 17.0875ZM12.4128 18.0831L12.3744 18.0337L12.4026 18.0994L12.4128 18.0831ZM14.4443 13.4539L16.3142 14.302C16.3914 14.3406 16.4685 14.3792 16.507 14.4563L16.4685 14.6298L15.5624 18.8321V18.8706H12.4202H12.266H9.27801V18.8321L8.37197 14.6298L8.33342 14.4563C8.39125 14.3984 8.46836 14.3406 8.54547 14.302L10.4154 13.4539L9.68283 14.3406L10.6853 14.6876L9.93344 15.3623L12.4395 18.6586L14.9263 15.343L14.1745 14.6683L15.1769 14.3213L14.4443 13.4539ZM9.08563 18.8706L8.1796 14.6683C8.14104 14.7454 8.12177 14.8225 8.12177 14.8996L7.90972 18.8706H9.08563ZM15.7758 18.8705H16.9518L16.7397 14.8995C16.7397 14.8224 16.7204 14.7453 16.6819 14.6682L15.7758 18.8705ZM10.037 9.03542C10.035 9.03674 10.033 9.03807 10.031 9.0394L9.9153 8.84663L9.58759 8.28761C9.22132 8.28761 8.79722 7.82497 9.22132 7.40088C9.6647 6.93824 10.7442 6.12861 12.4021 6.12861C14.0407 6.12861 15.1395 6.93824 15.5828 7.40088C15.9877 7.84424 15.5828 8.30688 15.178 8.24905L14.831 8.82735L14.8286 8.83148C14.8296 8.83649 14.8307 8.8415 14.8317 8.84652L14.716 9.03929C14.6823 9.01683 14.6421 9.00091 14.5991 8.98391C14.5683 8.97173 14.5362 8.959 14.504 8.94291L14.2461 8.83978L14.2324 8.84665L14.1168 8.90448C14.0975 8.91412 14.083 8.91894 14.0686 8.92376C14.0541 8.92858 14.0396 8.9334 14.0204 8.94304C14.0107 8.94304 14.0059 8.94786 14.0011 8.95267C13.9991 8.95465 13.9971 8.95664 13.9948 8.95828L14.0032 8.96218C14.0128 8.96218 14.0225 8.967 14.0321 8.97182C14.0417 8.97664 14.0514 8.98146 14.061 8.98146C14.0996 9.00074 14.1574 9.02001 14.2152 9.03929C14.2458 9.0524 14.2774 9.06551 14.3095 9.07885L14.3096 9.07887C14.4192 9.12435 14.535 9.17244 14.6393 9.23206C14.6393 9.23206 14.6393 9.25133 14.6586 9.25133L14.8514 9.32844L14.9285 9.1935V9.34772C14.9285 9.54048 14.9092 9.71397 14.8514 9.90674C14.8321 9.92602 14.8321 9.96457 14.8514 9.96457C14.9285 10.1381 14.9285 10.4465 14.8514 10.7549C14.755 11.1212 14.543 11.5067 14.2924 11.5067H14.2345C14.2345 11.5067 14.2152 11.4874 14.196 11.4874C13.8297 12.2971 13.1935 13.0103 12.4224 13.0103C11.6514 13.0103 11.0152 12.2971 10.6489 11.4874C10.6489 11.5067 10.6297 11.5067 10.6104 11.5067H10.5525C10.3019 11.5067 10.0899 11.1212 9.9935 10.7549C9.89711 10.4272 9.89711 10.1381 9.9935 9.96457C9.9935 9.95493 9.98868 9.94048 9.98386 9.92602C9.97904 9.91156 9.97422 9.8971 9.97422 9.88746V9.86819C9.91639 9.6947 9.89711 9.52121 9.89711 9.32844V9.15495L9.9935 9.30916L10.167 9.21278H10.1863C10.2906 9.15316 10.4065 9.10507 10.516 9.05959L10.5161 9.05957C10.5482 9.04623 10.5798 9.03312 10.6104 9.02001L10.6104 9.02001C10.6682 9.00073 10.726 8.98146 10.7646 8.96218C10.7685 8.96218 10.7723 8.96198 10.7759 8.96162C10.7699 8.96011 10.7662 8.95639 10.7625 8.95267C10.7577 8.94785 10.7529 8.94304 10.7432 8.94304C10.7239 8.9334 10.7095 8.92858 10.695 8.92376C10.6806 8.91894 10.6661 8.91412 10.6468 8.90448L10.5312 8.84665L10.5222 8.84218C10.447 8.87965 10.3476 8.92834 10.2629 8.96218C10.1858 8.98146 10.1087 9.02001 10.0509 9.05857L10.037 9.03542ZM10.3769 8.57678H10.3922C10.3894 8.57031 10.3851 8.56384 10.3786 8.55737L10.3869 8.54907C10.3845 8.54545 10.3816 8.54183 10.378 8.5382L10.3867 8.52947C10.3843 8.52595 10.3815 8.52244 10.378 8.51893L10.3867 8.51019C10.3843 8.50668 10.3815 8.50316 10.378 8.49965L10.4358 8.44182C10.4695 8.40809 10.5033 8.37804 10.537 8.34846C10.537 8.34846 10.537 8.34846 10.537 8.34846C10.5418 8.34423 10.5466 8.34001 10.5515 8.3358C10.59 8.30206 10.6286 8.26833 10.6671 8.22978C11.1105 7.86352 11.7274 7.53581 12.3828 7.53581C13.0575 7.53581 13.6551 7.84424 14.1178 8.22978L14.0755 8.23362C14.0897 8.24512 14.1038 8.25669 14.1178 8.26833C14.1949 8.32616 14.272 8.40326 14.3491 8.48036L14.3491 8.48037L14.3587 8.49001L14.3491 8.4611L14.4069 8.51893C14.4034 8.52244 14.4005 8.52595 14.3982 8.52947L14.4069 8.5382C14.4036 8.54157 14.4008 8.54493 14.3985 8.54829L14.4076 8.55737C14.3978 8.56715 14.393 8.57693 14.3906 8.58671L14.4252 8.67316L14.4637 8.71167C14.464 8.71169 14.4644 8.71169 14.4648 8.71169C14.484 8.73097 14.5226 8.73097 14.5419 8.73097C14.6186 8.73097 14.6763 8.67366 14.6958 8.57805C14.687 8.49244 14.6147 8.44171 14.5425 8.44171H14.4866C14.4857 8.44178 14.4849 8.44182 14.484 8.44182C14.4455 8.4129 14.4117 8.37917 14.378 8.34544C14.3445 8.31189 14.3109 8.27835 14.2726 8.24954V8.26822C13.7907 7.84413 13.116 7.47788 12.4027 7.47788C11.6702 7.47788 11.0148 7.84413 10.5328 8.26822L10.5136 8.2875C10.4364 8.34533 10.3593 8.40316 10.3015 8.48027C10.2822 8.46099 10.2629 8.46099 10.2437 8.46099C10.1488 8.46099 10.0912 8.53575 10.0895 8.61165C10.0973 8.69863 10.1702 8.75025 10.243 8.75025C10.2813 8.75025 10.3006 8.75025 10.3197 8.73138L10.3191 8.73099C10.3191 8.73099 10.2998 8.73099 10.2998 8.71172C10.3191 8.71172 10.3384 8.69244 10.3384 8.67316L10.3769 8.57678ZM12.7008 8.21197C12.6978 8.21144 12.6949 8.21092 12.6919 8.21039C12.695 8.20414 12.6981 8.1984 12.7012 8.193C12.6979 8.1924 12.6946 8.19181 12.6912 8.19122C12.6919 8.18993 12.6925 8.18866 12.6932 8.18741C12.6977 8.17867 12.7022 8.17091 12.7064 8.16364C12.7195 8.14095 12.7298 8.12306 12.7298 8.09484V8.05629V8.01773V7.99346C12.716 7.89594 12.6561 7.80666 12.5696 7.75511C12.5303 7.73815 12.4868 7.72858 12.4406 7.72858C12.2671 7.72858 12.1322 7.86352 12.1129 8.01773V8.05629V8.13339C12.1129 8.17195 12.1322 8.2105 12.1515 8.22978C12.19 8.32616 12.3057 8.38399 12.4214 8.38399C12.537 8.38399 12.6334 8.32616 12.6912 8.22978C12.6944 8.22337 12.6977 8.21749 12.7008 8.21197ZM10.6297 10.7356C10.6109 9.94759 10.7565 9.39697 10.942 9.03043C11.3614 9.19968 11.8716 9.34785 12.3818 9.34785C12.9216 9.34785 13.442 9.19363 13.8469 9.02014C13.8531 9.01702 13.8589 9.0144 13.8642 9.01213L13.8682 9.02001C14.0417 9.40555 14.196 9.96457 14.196 10.7549C14.2056 10.7453 14.2152 10.7405 14.2249 10.7356C14.2345 10.7308 14.2442 10.726 14.2538 10.7164C14.0225 11.6995 13.2899 12.8175 12.4224 12.8175C11.7477 12.8175 11.1501 12.1428 10.8032 11.3718V11.3525L10.7839 11.2947C10.7068 11.1019 10.6489 10.9091 10.5911 10.7164C10.6022 10.7274 10.6069 10.7322 10.6126 10.7342C10.6168 10.7356 10.6215 10.7356 10.6297 10.7356ZM10.167 10.7164C10.2634 11.1212 10.4754 11.3332 10.5333 11.3139C10.4562 11.1212 10.3983 10.9284 10.3598 10.7164C10.2634 10.6007 10.1863 10.4658 10.1092 10.3116C10.1092 10.4272 10.1284 10.5621 10.167 10.7164ZM14.2731 11.3139C14.3502 11.3139 14.543 11.1212 14.6393 10.7164C14.6662 10.6088 14.6837 10.5107 14.6984 10.4284C14.7048 10.3927 14.7106 10.36 14.7165 10.3308L14.7164 10.3308C14.6393 10.4658 14.5622 10.6007 14.4658 10.7164C14.4551 10.752 14.4444 10.7884 14.4336 10.8252L14.4336 10.8253C14.3859 10.9871 14.3359 11.1569 14.2731 11.3139Z" fill-opacity="0.79"/>
  </symbol>

</svg>