<svg xmlns="http://www.w3.org/2000/svg" viewBox="0 0 841.9 595.3">

  <!-- have_first_class icon -->
  <symbol id="icon-have_first_class" viewBox="0 0 25 25">
    <path d="M12.5 2L15.2032 10.0126H24L16.8984 14.9874L19.6016 23L12.5 18.0692L5.39841 23L8.10159 14.9874L1 10.0126H9.79681L12.5 2Z"/>
  </symbol>

  <!-- have_second_class icon -->
  <symbol id="icon-have_second_class" viewBox="0 0 25 25">
    <path fill-rule="evenodd" clip-rule="evenodd" d="M4.71558 3H20.2844C21.228 3 22 3.77727 22 4.72727V20.2727C22 21.2227 21.228 22 20.2844 22H4.71558C3.77201 22 3 21.2227 3 20.2727V4.72727C3 3.77727 3.77201 3 4.71558 3ZM17.6682 5.375C17.1964 5.375 16.8104 5.76364 16.8104 6.23864V7.58824H20.0914V6.23864C20.0914 5.76364 19.7054 5.375 19.2336 5.375H17.6682ZM20.0914 8.58824H16.8104V14.2273C16.8104 14.7023 17.1964 15.0909 17.6682 15.0909H19.2336C19.7054 15.0909 20.0914 14.7023 20.0914 14.2273V8.58824ZM8.08239 7.58824V6.325C8.08239 5.80682 7.6535 5.375 7.13883 5.375H5.74492C5.23025 5.375 4.80135 5.80682 4.80135 6.325V7.58824H8.08239ZM4.80135 8.58824H8.08239V14.1625C8.08239 14.6807 7.6535 15.1125 7.13883 15.1125H5.74492C5.23025 15.1125 4.80135 14.6807 4.80135 14.1625V8.58824ZM20.0271 21.6977C20.9278 21.6977 21.6783 20.9636 21.6783 20.0352V16.9477H3.32167V20.0352C3.32167 20.942 4.05079 21.6977 4.97291 21.6977H20.0271Z"/>
  </symbol>

  <!-- have_third_class icon -->
  <symbol id="icon-have_third_class" viewBox="0 0 25 25">
    <path fill-rule="evenodd" clip-rule="evenodd" d="M20.2844 3H4.71558C3.77201 3 3 3.77114 3 4.71364V20.2864C3 21.2289 3.77201 22 4.71558 22H20.2844C21.228 22 22 21.2289 22 20.2864V4.71364C22 3.77114 21.228 3 20.2844 3ZM5.50903 14.053C5.14447 14.053 4.84424 13.7531 4.84424 13.389V7H8.10384V13.389C8.10384 13.7531 7.80361 14.053 7.43905 14.053H5.50903ZM4.84424 5.31342V6H8.10384V5.31342C8.10384 4.94927 7.80361 4.64938 7.43905 4.64938H5.50903C5.14447 4.64938 4.84424 4.94927 4.84424 5.31342ZM16.6817 13.3675V7H19.9628V13.3675C19.9628 13.7531 19.6411 14.0744 19.2551 14.0744H17.3894C17.0034 14.0744 16.6817 13.7531 16.6817 13.3675ZM16.6817 6H19.9628V5.33484C19.9628 4.94927 19.6411 4.62796 19.2551 4.62796H17.3894C17.0034 4.62796 16.6817 4.94927 16.6817 5.33484V6ZM17.2178 20.0722C17.2178 20.5434 16.8318 20.929 16.36 20.929H11V17.6731H16.3386C16.8104 17.6731 17.1964 18.0586 17.1964 18.5299V20.0722H17.2178ZM10 17.6731H8.63996C8.16817 17.6731 7.78217 18.0586 7.78217 18.5299V20.0722C7.78217 20.5434 8.16817 20.929 8.63996 20.929H10V17.6731Z"/>
  </symbol>

  <!-- have_fourth_class icon -->
  <symbol id="icon-have_fourth_class" viewBox="0 0 25 25">
    <path d="M6 9.75326C6.14167 9.57335 6.25759 9.35002 6.4379 9.21975C7.03036 8.7979 7.79669 9.08947 7.97056 9.80288C8.12512 10.4481 8.25391 11.0994 8.38914 11.7508C8.62741 12.8737 8.85925 14.0027 9.10396 15.1256C9.42594 16.5834 10.4112 17.3527 11.9632 17.3589C13.0708 17.3651 14.172 17.3527 15.2797 17.3651C15.9301 17.3713 16.2971 17.6566 16.4002 18.2025C16.5032 18.7919 16.0846 19.3378 15.4664 19.344C14.0304 19.3564 12.5943 19.3936 11.1582 19.3316C9.39374 19.2572 7.75161 17.8551 7.29439 16.0809C6.99816 14.9208 6.77921 13.7422 6.52162 12.5759C6.35419 11.8004 6.17387 11.0312 6 10.2557C6 10.0882 6 9.92075 6 9.75326Z"/>
    <path d="M10.5399 1C11.0486 1.10546 11.5187 1.26675 11.9245 1.60175C12.7681 2.29655 13.0256 3.56829 12.4976 4.51123C11.9245 5.54103 10.7202 6.04972 9.61902 5.73334C8.52427 5.41696 7.86741 4.65392 7.7837 3.50625C7.7193 2.62534 8.20872 1.6948 9.2262 1.23574C9.45803 1.13028 9.71562 1.08065 9.96677 1C10.1535 1 10.3467 1 10.5399 1Z"/>
    <path d="M17.3469 16.875C17.1924 16.875 17.0829 16.875 16.9799 16.875C15.3313 16.875 13.6827 16.8812 12.0277 16.875C10.7655 16.8688 9.91546 16.1988 9.67075 15.0077C9.24572 12.9853 8.82714 10.963 8.40212 8.94058C7.97065 6.8872 9.88326 5.89462 11.2549 6.32267C12.1307 6.59563 12.5815 7.22839 12.7618 8.05347C13.1224 9.70983 13.4638 11.3662 13.7986 13.0225C13.8566 13.3203 13.9532 13.432 14.288 13.4258C15.6275 13.4134 16.967 13.4134 18.3064 13.4568C19.2144 13.4816 19.9164 14.1888 19.9808 15.0635C19.9937 15.2124 20.0001 15.3613 20.0001 15.5102C20.0001 17.8117 20.0001 20.1071 20.0001 22.4086C20.0001 22.6133 20.0001 22.8242 19.955 23.0227C19.8133 23.6493 19.2466 24.0401 18.5833 23.9967C17.9329 23.9533 17.4242 23.4756 17.3598 22.8428C17.3469 22.6939 17.3469 22.5451 17.3469 22.3962C17.3469 20.6778 17.3469 18.9532 17.3469 17.2348C17.3469 17.1293 17.3469 17.0177 17.3469 16.875Z"/>
  </symbol>

  <!-- have_wifi icon -->
  <symbol id="icon-have_wifi" viewBox="0 0 25 25">
    <path d="M24 8.79103C23.7318 9.04155 23.4635 9.29206 23.2029 9.55016C22.9424 9.80827 22.6971 10.0816 22.4212 10.3776C19.6238 7.69788 16.3359 6.28589 12.4885 6.28589C8.65645 6.28589 5.38387 7.69788 2.66311 10.3017C2.11896 9.77031 1.5978 9.2541 1 8.66198C1.82772 8.02431 2.63246 7.30313 3.52916 6.711C9.91336 2.52058 18.1446 3.24935 23.7088 8.47219C23.8007 8.5557 23.9004 8.63161 24 8.70753C24 8.73789 24 8.76067 24 8.79103Z"/>
    <path d="M12.1207 21.9996C12.021 21.954 11.9214 21.9009 11.8141 21.8553C11.0017 21.5137 10.5495 20.6711 10.7181 19.8133C10.8867 18.963 11.6455 18.3481 12.5269 18.3481C13.4006 18.3557 14.1593 18.9782 14.3203 19.8285C14.4812 20.6787 14.0137 21.5213 13.1936 21.8553C13.0863 21.9009 12.9867 21.9464 12.8794 21.992C12.6265 21.9996 12.3736 21.9996 12.1207 21.9996Z"/>
    <path d="M5.89735 13.5131C5.3532 12.9817 4.83204 12.4731 4.31088 11.9569C8.27323 7.70573 15.9603 7.14397 20.6814 11.9113C20.1526 12.4275 19.6161 12.9438 19.072 13.4752C17.2786 11.7747 15.079 10.8182 12.4885 10.8258C9.90568 10.8334 7.71375 11.7823 5.89735 13.5131Z"/>
    <path d="M17.4855 15.1524C16.9414 15.6838 16.4202 16.2 15.8991 16.7086C13.8528 14.7956 10.9021 15.0006 9.13166 16.701C8.6105 16.1848 8.08934 15.6762 7.56052 15.16C9.66048 12.7232 14.4812 12.1083 17.4855 15.1524Z"/>
  </symbol>

  <!-- is_express icon -->
  <symbol id="icon-is_express" viewBox="0 0 25 25">
    <path d="M9.28456 20.353C9.15396 20.3571 9.07233 20.3041 9.00091 20.2329C8.49074 19.734 7.97649 19.2392 7.47041 18.7383C6.89902 18.1722 6.3358 17.596 5.76033 17.034C5.63177 16.9077 5.59911 16.7754 5.65013 16.6268C5.76237 16.2908 5.8746 15.9507 6.01541 15.6249C6.92147 13.5175 8.18056 11.634 9.69474 9.91745C11.1008 8.3231 12.6966 6.94663 14.4923 5.80839C15.129 5.40522 15.7943 5.05092 16.4453 4.67218C16.5126 4.63349 16.5412 4.66811 16.582 4.7068C17.2187 5.34209 17.8574 5.97739 18.4941 6.61472C19.4267 7.54527 20.3593 8.47785 21.2939 9.40636C21.3531 9.46541 21.3572 9.5041 21.3204 9.5774C20.5246 11.1351 19.5593 12.5788 18.4206 13.9064C17.7003 14.7453 16.9187 15.5252 16.0963 16.2643C14.2107 17.9584 12.0966 19.2962 9.72943 20.2227C9.60699 20.2716 9.48047 20.3102 9.35394 20.351C9.32333 20.353 9.29068 20.351 9.28456 20.353ZM10.6314 14.1222C10.5641 14.8634 11.2518 15.3765 11.8558 15.3724C12.5353 15.3663 13.1027 14.8064 13.1006 14.1243C13.0986 13.5521 12.7006 12.8801 11.7579 12.8944C11.1477 12.9046 10.6314 13.4584 10.6314 14.1222ZM15.3943 11.8152C16.1126 11.8905 16.6473 11.1656 16.6412 10.5975C16.6371 10.0172 16.129 9.34731 15.3596 9.35342C14.7454 9.35749 14.1291 9.91745 14.1556 10.6077C14.1822 11.3163 14.674 11.8152 15.3943 11.8152Z"/>
    <path d="M21.7654 8.61827C20.2982 7.17256 18.8289 5.72686 17.3453 4.26486C17.629 4.15287 17.8943 4.04291 18.1636 3.9411C19.1493 3.56441 20.1615 3.29359 21.2002 3.13273C21.6185 3.06757 22.043 3.02481 22.4674 3.00241C22.8837 2.98001 23.0021 3.11033 23 3.52979C22.9959 4.24246 22.8715 4.93885 22.7184 5.63319C22.4919 6.6574 22.1736 7.65515 21.7573 8.61827C21.7511 8.63049 21.745 8.64271 21.7389 8.65289C21.7471 8.64067 21.7573 8.62845 21.7654 8.61827Z"/>
    <path d="M9.97031 8.98269C9.92949 9.03156 9.89276 9.08247 9.84787 9.12726C8.62551 10.3999 7.58885 11.8089 6.70728 13.3341C6.3971 13.8716 6.11957 14.4255 5.83183 14.9752C5.78694 15.0608 5.74408 15.0811 5.65021 15.0547C4.8666 14.8307 4.08298 14.6148 3.29936 14.3929C3.0504 14.3216 2.93816 14.0834 3.03408 13.839C3.06469 13.7617 3.10754 13.6863 3.15243 13.6151C4.18705 12.0024 5.54002 10.7277 7.24602 9.84604C8.06432 9.42251 8.92753 9.12319 9.83766 8.96029C9.87644 8.95419 9.91521 8.95418 9.95398 8.95215C9.9601 8.96233 9.96419 8.97251 9.97031 8.98269Z"/>
    <path d="M10.9008 20.188C12.019 19.6504 13.0945 19.0457 14.1168 18.3452C15.1372 17.6468 16.0881 16.8608 16.9983 16.0239C17.0105 16.0321 17.0248 16.0402 17.037 16.0484C17.0289 16.1156 17.0228 16.1828 17.0105 16.2499C16.7065 17.8484 15.9943 19.2513 14.9739 20.5056C14.2291 21.4219 13.3536 22.1936 12.3496 22.8187C12.27 22.8697 12.1864 22.9165 12.0986 22.9511C11.9211 23.0203 11.7497 22.9613 11.6721 22.7882C11.5946 22.6151 11.5293 22.4359 11.4762 22.2547C11.2824 21.5807 11.0946 20.9047 10.9048 20.2307C10.9028 20.2226 10.9028 20.2124 10.9008 20.188Z"/>
    <path d="M8.23362 20.701C8.09689 20.8049 7.96425 20.923 7.81528 21.0146C7.23165 21.3771 6.60925 21.6682 5.97052 21.9167C5.04814 22.2771 4.11759 22.613 3.18909 22.9592C3.14623 22.9755 3.0993 22.9836 3.034 22.9999C3.1095 22.782 3.1748 22.5845 3.24623 22.3891C3.67273 21.2162 4.10331 20.0434 4.65633 18.9214C4.83387 18.563 5.01753 18.2067 5.28894 17.9053C5.31342 17.8789 5.33995 17.8524 5.35832 17.832C6.31131 18.785 7.26226 19.7318 8.23362 20.701Z"/>
  </symbol>

  <!-- have_air_conditioning icon -->
  <symbol id="icon-have_air_conditioning" viewBox="0 0 25 25">
    <path d="M9.99361 13.6765C9.58763 13.9172 9.21201 14.1386 8.83639 14.3599C8.1838 14.7443 7.53879 15.1327 6.8824 15.5093C6.7534 15.5831 6.70787 15.6724 6.70028 15.8122C6.65096 16.5849 6.59405 17.3616 6.54093 18.1343C6.51058 18.5886 6.18807 18.8993 5.75933 18.8838C5.34198 18.8682 5.03465 18.5187 5.04983 18.0644C5.065 17.7111 5.09156 17.3538 5.11433 17.0004C5.12192 16.8606 5.1295 16.7209 5.13709 16.55C5.02327 16.616 4.936 16.6626 4.84874 16.7131C4.27582 17.0509 3.7029 17.3926 3.12619 17.7305C2.83025 17.9013 2.48878 17.8586 2.24595 17.6334C2.0221 17.4276 1.92345 17.0626 2.06763 16.783C2.1473 16.6277 2.28389 16.4762 2.43186 16.383C3.01996 16.0141 3.61943 15.6724 4.21511 15.319C4.26823 15.288 4.32135 15.253 4.39344 15.2103C3.94573 14.9851 3.52078 14.7754 3.09584 14.5618C2.72401 14.3716 2.56086 14.0065 2.6671 13.6299C2.7961 13.1833 3.27417 12.9581 3.7029 13.1639C4.40103 13.4979 5.09156 13.8473 5.7821 14.1968C5.91489 14.2667 6.01734 14.2628 6.14634 14.1852C7.11764 13.6027 8.09274 13.0319 9.06404 12.4572C9.11716 12.4261 9.17028 12.3912 9.24995 12.3407C9.03748 12.2164 8.84398 12.0999 8.65048 11.9873C7.81956 11.4942 6.98484 11.0088 6.15772 10.5078C6.01354 10.4185 5.90351 10.4263 5.75933 10.5001C5.08777 10.8457 4.41241 11.1796 3.73326 11.5097C3.33108 11.7077 2.89854 11.564 2.71263 11.1796C2.51913 10.7874 2.67469 10.3447 3.08066 10.1351C3.45249 9.9409 3.82811 9.75839 4.19994 9.56812C4.25685 9.54093 4.30997 9.50987 4.38585 9.46716C3.81293 9.12932 3.26278 8.80314 2.71263 8.47696C2.61019 8.41483 2.50395 8.35658 2.40151 8.29056C2.0221 8.05758 1.89689 7.61102 2.10177 7.23824C2.31045 6.86157 2.76195 6.74119 3.15275 6.96642C3.7674 7.32366 4.37826 7.68868 4.98912 8.04981C5.02706 8.07311 5.065 8.09252 5.13709 8.13524C5.11433 7.75858 5.09536 7.41686 5.07639 7.07126C5.065 6.90817 5.04983 6.74896 5.04603 6.58587C5.03845 6.15872 5.34198 5.81701 5.74416 5.79759C6.16531 5.77818 6.50299 6.08106 6.53334 6.51597C6.59025 7.30813 6.64717 8.10417 6.69649 8.89633C6.70408 9.02836 6.7534 9.10214 6.86723 9.16427C7.84991 9.73897 8.82501 10.3176 9.8039 10.8961C9.85702 10.9272 9.91013 10.9583 9.98981 11.001C9.99361 10.9156 10.0012 10.8534 10.0012 10.7952C10.0012 9.63801 9.9974 8.47696 10.005 7.31978C10.005 7.17999 9.95946 7.09844 9.84563 7.02078C9.20442 6.58198 8.56321 6.14319 7.92959 5.69663C7.44773 5.3588 7.48567 4.64818 7.99409 4.38025C8.26347 4.24045 8.53286 4.26375 8.78327 4.43461C9.12475 4.6676 9.46622 4.90059 9.80769 5.13357C9.85702 5.16852 9.91013 5.20347 10.0012 5.26172C10.0012 5.16076 10.0012 5.09086 10.0012 5.02485C10.0012 4.32588 9.9974 3.62692 10.0012 2.92795C10.005 2.39985 10.3958 2.05037 10.8738 2.13191C11.2077 2.18627 11.4619 2.47363 11.4885 2.82311C11.4923 2.87359 11.4885 2.92795 11.4885 2.97843C11.4885 9.21863 11.4885 15.455 11.4885 21.6952C11.4885 22.1145 11.3102 22.4096 10.9839 22.5184C10.4868 22.6892 10.0012 22.3281 9.9974 21.7767C9.99361 21.07 9.9974 20.3671 9.9974 19.6604C9.9974 19.5905 9.9974 19.5245 9.9974 19.408C9.73181 19.5905 9.50037 19.7458 9.27272 19.9011C9.10957 20.0138 8.95021 20.1264 8.78327 20.2351C8.40006 20.4914 7.94856 20.4137 7.71332 20.0526C7.4705 19.6837 7.57294 19.2216 7.95994 18.9537C8.59356 18.5149 9.22719 18.08 9.85702 17.6373C9.92152 17.5907 9.98981 17.4897 9.98981 17.4159C9.9974 16.2122 9.9974 15.0084 9.99361 13.8046C10.005 13.7774 10.0012 13.7464 9.99361 13.6765Z"/>
    <path d="M21.6682 7.3199C21.4443 7.59172 21.1977 7.84412 21.0004 8.13147C20.7121 8.55862 20.4123 8.99353 20.196 9.46339C19.828 10.2594 20.0329 11.005 20.7083 11.5525C21.3229 12.0534 22.0438 12.3253 22.7875 12.5466C22.8747 12.5738 22.9658 12.5971 22.9999 12.6087C22.3967 12.8805 21.7668 13.1562 21.1446 13.4514C20.9587 13.5407 20.7879 13.6766 20.6286 13.8125C20.0443 14.3057 19.8622 14.9503 20.1012 15.6919C20.2985 16.3132 20.6703 16.8258 21.0763 17.3151C21.2508 17.5248 21.4405 17.7228 21.6568 17.9597C21.3874 17.9053 21.1598 17.851 20.9283 17.8121C20.3288 17.7112 19.7294 17.6296 19.1185 17.7034C18.2496 17.8121 17.6919 18.3597 17.5705 19.245C17.4567 20.0838 17.6008 20.8953 17.8057 21.6991C17.8171 21.7419 17.8247 21.7846 17.8475 21.87C17.6388 21.6797 17.4643 21.5128 17.2821 21.3574C16.8193 20.9614 16.3412 20.5925 15.7872 20.3439C14.9184 19.9556 14.1633 20.1692 13.6056 20.9575C13.2034 21.5244 12.9568 22.1651 12.7595 22.8291C12.7405 22.8874 12.7254 22.9495 12.6874 23C12.6874 21.7147 12.6874 20.4332 12.6874 19.1324C14.7173 19.0625 16.3867 18.2432 17.654 16.62C18.6063 15.3968 19.0616 13.9872 19.0199 12.4223C18.9288 8.84985 16.0073 6.05399 12.695 6.07341C12.695 4.72984 12.695 3.38628 12.695 2C12.7254 2.08155 12.7443 2.12814 12.7557 2.17474C12.991 2.93584 13.2679 3.67751 13.7346 4.326C14.2772 5.07544 15.0019 5.28125 15.8442 4.92012C16.5271 4.62888 17.0924 4.16679 17.616 3.64257C17.6881 3.56879 17.7602 3.49889 17.8323 3.42511C17.8399 3.41734 17.8551 3.41734 17.8702 3.41346C17.8019 3.80178 17.7071 4.18621 17.6767 4.57452C17.6388 5.07544 17.6084 5.58413 17.6578 6.08118C17.7412 6.92382 18.3066 7.45969 19.1337 7.57618C19.9191 7.68491 20.6817 7.55677 21.4405 7.35873C21.5088 7.33931 21.5733 7.32378 21.6416 7.30825C21.6454 7.30825 21.653 7.31213 21.6682 7.3199Z"/>
    <path d="M12.6914 17.7849C12.6914 14.3366 12.6914 10.8845 12.6914 7.40137C14.4936 7.4868 15.9506 8.22848 16.9105 9.78561C18.0715 11.6689 18.0449 13.6066 16.8801 15.4861C15.7571 17.2878 13.7955 17.8625 12.6914 17.7849Z"/>
  </symbol>

  <!-- have_bed_linen icon -->
  <symbol id="icon-have_bed_linen" viewBox="0 0 25 25">
    <path d="M20.1173 13.108C20.2548 13.5745 20.4299 14.2331 20.63 14.878C20.9426 15.9345 20.3049 16.991 19.292 16.991C14.0027 17.0047 8.70091 17.0047 3.41161 16.9773C1.6235 16.9635 0.360575 15.9894 0.0729769 14.3017C-0.0645698 13.5196 0.0104557 12.6552 0.148002 11.8731C0.598155 9.2113 1.12333 6.56319 1.63601 3.90136C1.72354 3.43486 1.86108 2.96835 2.04865 2.54301C2.43628 1.66488 3.01148 1.07488 3.9743 0.910232C4.78708 0.773025 5.57485 0.430005 6.36261 0.141869C6.86278 -0.0502222 7.32544 -0.0776638 7.7881 0.251635C8.63839 0.86907 9.5637 1.02 10.5765 0.992557C12.8273 0.937674 15.0781 0.978836 17.3288 0.992557C18.1291 0.992557 18.1291 1.00628 18.3542 1.82952C18.6418 2.92719 18.9169 4.02485 19.217 5.12251C19.292 5.36949 19.4546 5.58902 19.5921 5.80855C19.9047 6.28878 20.3174 6.7004 20.5174 7.22179C21.0551 8.59387 21.0676 10.0757 20.9176 11.5438C20.8675 12.0241 20.4674 12.4494 20.1173 13.108ZM1.06081 10.8852C2.16119 9.93851 3.32408 9.8699 4.52449 9.88362C9.2761 9.89734 14.0277 9.88362 18.7668 9.89734C19.2295 9.89734 19.7046 9.96595 20.3048 10.0071C20.1923 9.25247 20.1298 8.55271 19.9672 7.88039C19.6171 6.42599 18.7543 5.86343 17.4164 6.2339C16.4911 6.49459 15.5532 6.76901 14.7029 7.20807C12.1646 8.51154 9.52619 8.30573 6.87529 7.93527C6.58769 7.89411 6.47515 7.72946 6.51266 7.4276C6.55018 7.08458 6.58769 6.75529 6.6127 6.41227C6.68772 5.20484 6.77525 3.99741 6.83778 2.78998C6.86278 2.18626 6.83778 1.56883 6.83778 0.86907C6.57519 0.965116 6.36261 1.03372 6.15004 1.10232C5.4248 1.32186 4.71205 1.58255 3.98681 1.7472C3.39911 1.87069 2.98647 2.19999 2.76139 2.77626C2.58633 3.21532 2.44878 3.66811 2.34875 4.13462C2.16119 4.97158 2.02364 5.82227 1.86108 6.67296C1.611 8.03132 1.34841 9.37595 1.06081 10.8852ZM11.1642 16.1952C13.7276 16.1952 16.291 16.1952 18.8544 16.1952C19.0169 16.1952 19.192 16.2089 19.3545 16.1815C19.7172 16.1266 20.0173 15.7287 19.9672 15.3582C19.9172 14.974 19.7046 14.7545 19.3295 14.7682C19.167 14.7682 18.9919 14.7682 18.8293 14.7682C14.0152 14.7819 9.20108 14.7957 4.38694 14.7957C4.09934 14.7957 3.79924 14.8231 3.51165 14.7819C2.91144 14.7133 2.47379 14.1371 2.4863 13.451C2.4988 12.7924 2.87393 12.3534 3.49914 12.3122C4.13686 12.271 4.78708 12.2299 5.4373 12.2162C10.0389 12.1613 14.6404 12.1201 19.242 12.0652C19.342 12.0652 19.4546 12.0652 19.5546 12.0515C19.9172 12.0103 20.2173 11.6948 20.2298 11.3655C20.2298 10.9264 19.9422 10.7892 19.6296 10.6931C19.4921 10.652 19.342 10.652 19.192 10.652C13.9652 10.652 8.72592 10.6383 3.49914 10.6794C2.96146 10.6794 2.38626 10.899 1.9111 11.1871C0.423096 12.1064 0.298053 14.5075 1.63601 15.5777C2.18619 16.0168 2.84892 16.154 3.52415 16.154C6.07502 16.1952 8.62588 16.1952 11.1642 16.1952ZM7.62554 1.11604C7.513 3.2016 7.40047 5.1774 7.28793 7.11203C10.6641 7.93527 13.7151 7.08458 16.6286 5.49297C13.5401 4.46391 10.7016 2.66649 7.62554 1.11604ZM19.2795 12.8885C19.0169 12.8885 18.7918 12.8885 18.5543 12.8885C16.6786 12.9159 14.803 12.9708 12.9273 12.9845C10.0389 13.012 7.15038 13.012 4.2494 13.0394C3.99931 13.0394 3.73672 13.0394 3.51165 13.1354C3.3866 13.1903 3.22405 13.4236 3.23655 13.5608C3.24906 13.7117 3.41161 13.9038 3.54916 13.9861C3.6617 14.0547 3.83676 14.0136 3.9743 14.0136C9.01351 13.9999 14.0652 13.9999 19.1044 13.9861C19.2545 13.9861 19.4045 13.945 19.5796 13.9313C19.5171 13.698 19.4796 13.5196 19.4296 13.3413C19.392 13.2041 19.342 13.0806 19.2795 12.8885ZM10.8266 1.78836C10.8141 1.82952 10.8141 1.88441 10.8016 1.92557C13.2525 3.22904 15.6908 4.55996 18.4792 5.20484C18.2041 4.1209 17.9666 3.10556 17.6665 2.11766C17.6164 1.95301 17.3163 1.80208 17.1288 1.80208C15.0281 1.78836 12.9273 1.78836 10.8266 1.78836Z"/>
  </symbol>

  <!-- have_train_food icon -->
  <symbol id="icon-have_train_food" viewBox="0 0 25 25">
    <path d="M1.87776 0C2.13926 0 2.32945 0 2.51964 0C7.27434 0 12.029 0 16.7837 0C18.2696 0 18.9947 0.721645 18.9947 2.22409C18.9947 3.02854 19.0066 3.84483 18.9947 4.64928C18.9828 5.83231 18.1983 6.6131 17.0215 6.62494C16.4271 6.63677 15.8447 6.62494 15.2028 6.62494C15.2028 7.54769 15.2028 8.39947 15.2028 9.26308C15.1909 11.6291 13.5862 13.238 11.2207 13.2499C9.43772 13.2499 7.65471 13.2617 5.8717 13.2499C3.53001 13.238 1.90153 11.641 1.90153 9.32223C1.86587 6.23454 1.87776 3.1705 1.87776 0ZM15.2385 1.90467C15.2385 2.82743 15.2385 3.76202 15.2385 4.69661C15.8566 4.69661 16.4509 4.69661 17.0452 4.69661C17.0452 3.75019 17.0452 2.82743 17.0452 1.90467C16.4271 1.90467 15.8566 1.90467 15.2385 1.90467Z"/>
    <path d="M17.0574 15.1782C17.0574 15.7934 17.0574 16.3849 17.0574 17.0001C11.3637 17.0001 5.69369 17.0001 -6.10352e-05 17.0001C-6.10352e-05 16.3849 -6.10352e-05 15.8052 -6.10352e-05 15.1782C5.66992 15.1782 11.3399 15.1782 17.0574 15.1782Z"/>
  </symbol>

</svg>